<?xml version="1.0" standalone="no"?>
<!DOCTYPE svg PUBLIC "-//W3C//DTD SVG 20010904//EN"
 "http://www.w3.org/TR/2001/REC-SVG-20010904/DTD/svg10.dtd">
<svg version="1.0" xmlns="http://www.w3.org/2000/svg"
 width="288.000000pt" height="288.000000pt" viewBox="0 0 288.000000 288.000000"
 preserveAspectRatio="xMidYMid meet">
<metadata>
Created by potrace 1.11, written by Peter Selinger 2001-2013
</metadata>
<g transform="translate(0.000000,288.000000) scale(0.100000,-0.100000)"
fill="#000000" stroke="none">
<path d="M1123 2782 c-29 -8 -53 -19 -53 -24 0 -5 -4 -6 -10 -3 -5 3 -10 1
-10 -5 0 -6 -4 -9 -9 -6 -5 3 -17 -5 -27 -19 -10 -13 -21 -22 -26 -19 -4 3 -8
1 -8 -5 0 -6 -10 -19 -22 -31 -12 -11 -18 -20 -14 -20 4 0 0 -7 -8 -16 -9 -8
-14 -20 -11 -25 4 -5 1 -9 -5 -9 -6 0 -9 -4 -5 -9 3 -5 1 -12 -4 -15 -5 -3
-12 -22 -16 -43 -4 -20 -9 -511 -11 -1090 -3 -761 -7 -1060 -16 -1080 -6 -15
-11 -31 -10 -35 3 -13 -68 -30 -111 -26 -45 3 -77 27 -77 56 0 10 -3 22 -7 26
-5 4 -8 196 -9 425 -1 386 -5 479 -22 506 -4 5 -8 19 -9 30 -2 11 -8 22 -13
23 -6 2 -8 7 -5 12 6 10 -87 110 -103 110 -6 0 -12 5 -12 11 0 5 -4 8 -9 5 -5
-4 -11 -2 -13 4 -1 5 -12 11 -23 13 -11 1 -26 6 -34 11 -7 5 -45 10 -83 11
-47 1 -73 7 -79 16 -5 8 -9 10 -9 4 0 -5 -4 -4 -8 3 -15 23 -123 33 -130 12
-2 -6 -8 -8 -13 -4 -5 3 -12 -2 -15 -10 -3 -9 -10 -13 -15 -10 -5 3 -9 -1 -9
-9 0 -8 -7 -18 -16 -21 -8 -3 -12 -10 -9 -16 3 -5 2 -10 -3 -10 -13 0 -21 -47
-15 -86 5 -30 72 -121 73 -99 0 6 4 4 9 -4 18 -28 151 -21 151 9 0 4 33 8 73
8 57 -1 76 -5 90 -19 9 -11 15 -19 12 -19 -3 0 0 -10 7 -23 9 -17 13 -126 14
-447 2 -514 6 -537 102 -642 14 -15 29 -25 34 -22 4 3 8 1 8 -5 0 -9 54 -43
62 -40 2 0 16 -4 31 -10 32 -12 170 -15 181 -3 8 7 13 8 40 11 8 0 22 8 30 17
9 8 16 12 16 7 0 -4 7 1 15 11 8 11 15 17 15 13 0 -4 12 3 26 16 25 21 56 69
53 83 0 4 4 10 10 13 6 4 12 16 14 26 1 11 7 27 12 35 6 9 11 229 13 560 4
909 9 1624 12 1638 2 6 7 12 12 12 4 0 8 6 8 14 0 18 45 28 107 25 40 -3 51
-8 70 -33 21 -31 22 -37 23 -431 2 -566 6 -896 12 -925 9 -48 30 -100 39 -100
6 0 7 -5 4 -10 -8 -13 102 -123 115 -115 5 3 10 1 10 -5 0 -6 5 -8 10 -5 6 3
10 2 10 -3 0 -13 79 -32 135 -32 56 0 135 19 135 32 0 5 4 7 10 3 5 -3 18 3
30 15 11 11 20 17 20 13 0 -4 16 8 35 27 19 18 32 36 30 41 -3 4 2 10 11 13 8
3 12 10 9 16 -3 5 -2 10 4 10 6 0 18 24 27 53 15 45 18 106 20 442 2 280 6
399 15 420 7 17 12 33 11 37 -3 12 67 30 105 27 43 -3 70 -22 85 -59 6 -14 12
-104 14 -200 1 -96 6 -191 9 -210 9 -47 45 -130 57 -130 5 0 7 -4 4 -8 -10
-16 104 -109 117 -95 4 3 7 2 7 -4 0 -18 74 -34 163 -35 31 0 57 -4 57 -8 0
-12 50 -30 86 -30 63 0 119 43 143 110 12 35 5 100 -10 100 -5 0 -8 3 -7 8 2
4 -5 18 -15 32 -9 13 -17 20 -17 15 0 -5 -6 -1 -13 9 -28 39 -124 37 -179 -4
-23 -17 -40 -20 -83 -18 -30 2 -55 5 -55 9 0 3 -8 14 -17 25 -25 28 -25 29
-29 224 -3 169 -9 234 -22 255 -7 11 -9 17 -11 38 0 7 -10 23 -21 35 -12 12
-18 22 -14 22 10 0 -47 54 -83 79 -18 12 -33 19 -33 14 0 -4 -4 -3 -8 2 -26
36 -207 48 -257 17 -5 -4 -15 -7 -21 -8 -19 -3 -64 -36 -64 -47 0 -6 -3 -7 -7
-4 -8 9 -43 -22 -43 -38 0 -7 -7 -16 -16 -19 -8 -3 -12 -10 -9 -16 3 -5 1 -10
-6 -10 -7 0 -9 -3 -6 -7 4 -3 0 -14 -8 -23 -9 -10 -15 -21 -14 -26 2 -5 -2
-26 -9 -48 -7 -25 -11 -161 -12 -397 0 -355 -3 -412 -23 -436 -5 -7 -6 -13 -1
-13 5 0 -4 -8 -21 -18 -36 -23 -114 -21 -147 2 -12 9 -19 16 -14 16 5 0 2 7
-5 17 -15 17 -15 30 -22 928 -3 384 -7 446 -28 471 -5 6 -6 14 -2 17 3 4 1 7
-6 7 -7 0 -9 5 -6 10 3 6 1 10 -4 10 -6 0 -11 7 -11 15 0 8 -4 15 -10 15 -5 0
-9 3 -8 8 4 11 -44 62 -52 57 -5 -3 -11 2 -14 11 -3 8 -10 12 -16 9 -5 -3 -10
-2 -10 4 0 8 -29 23 -50 26 -3 0 -11 4 -18 8 -23 15 -136 14 -189 -1z"/>
</g>
</svg>
